Coordinates
version=1
nRows=14
nColumns=24
inDegrees=yes

Units are S.I. units (second, meters, Newtons, ...)
Angles are in degrees.

endheader
time	pelvis_tilt	pelvis_list	pelvis_rotation	pelvis_tx	pelvis_ty	pelvis_tz	hip_flexion_r	hip_adduction_r	hip_rotation_r	knee_angle_r	ankle_angle_r	subtalar_angle_r	mtp_angle_r	hip_flexion_l	hip_adduction_l	hip_rotation_l	knee_angle_l	ankle_angle_l	subtalar_angle_l	mtp_angle_l	lumbar_extension	lumbar_bending	lumbar_rotation
      1.28333333	     -3.37551072	      3.65963199	     -2.30894239	      0.19331909	      1.02949617	      0.29830518	     22.16747985	     -5.09211520	     -4.14601594	    -67.21008111	     -4.03939795	     -1.10402244	      7.64651988	      9.84487016	      7.18274701	      0.22098912	     -5.23864705	      1.03159548	     -6.50185536	      0.24478185	     -2.01541158	     -5.36212232	      2.30910826
      1.28750000	     -3.39480086	      3.50967233	     -2.33975965	      0.19832466	      1.03019951	      0.29803587	     22.66926036	     -4.94255425	     -4.12234543	    -66.76248495	     -3.47886231	     -1.70825378	      7.61389907	      9.42920126	      7.05863395	      0.30285202	     -5.00325949	      1.11104285	     -6.56227913	      0.23423539	     -2.02993661	     -5.12568041	      2.21381457
      1.29166667	     -3.37636850	      3.32670040	     -2.37620124	      0.20336830	      1.03098503	      0.29780370	     23.09088344	     -4.74656472	     -4.10059653	    -66.20369460	     -3.01436635	     -2.38227528	      7.54828805	      8.95132350	      6.89873543	      0.41839630	     -4.73071254	      1.18945879	     -6.65380067	      0.21450301	     -2.05639584	     -4.88153368	      2.07724631
      1.29583333	     -3.37858217	      3.15525560	     -2.40791854	      0.20839520	      1.03169551	      0.29755012	     23.52116043	     -4.56719456	     -4.08516990	    -65.59270207	     -2.52922440	     -3.01784478	      7.46950905	      8.50795560	      6.75226239	      0.51559421	     -4.47999530	      1.26330426	     -6.74035044	      0.19027630	     -2.07509183	     -4.63917805	      1.95892419
      1.30000000	     -3.38503084	      2.97441308	     -2.43988322	      0.21340508	      1.03237072	      0.29731442	     23.93489149	     -4.37076764	     -4.06519546	    -64.91254581	     -2.05725189	     -3.63995353	      7.37772416	      8.07337597	      6.59330292	      0.60921011	     -4.23634327	      1.34302747	     -6.81941204	      0.16237676	     -2.09164086	     -4.38619974	      1.84783332
      1.30416667	     -3.37939869	      2.78482381	     -2.46801303	      0.21840914	      1.03304705	      0.29708267	     24.30974873	     -4.16396985	     -4.05093879	    -64.15890337	     -1.60435128	     -4.25213889	      7.27172887	      7.62782674	      6.42512661	      0.70242894	     -3.99602515	      1.42388727	     -6.89968681	      0.13115088	     -2.11993547	     -4.12470895	      1.73871654
      1.30833333	     -3.39314505	      2.60100246	     -2.49141381	      0.22338853	      1.03363597	      0.29683847	     24.69108078	     -3.96422090	     -4.03711382	    -63.35709119	     -1.12736507	     -4.81481134	      7.18183583	      7.22028807	      6.26329743	      0.77124368	     -3.78761691	      1.50889342	     -6.97017158	      0.10516192	     -2.13235620	     -3.86018479	      1.65234131
      1.31250000	     -3.37849451	      2.42080881	     -2.52846754	      0.22837568	      1.03424583	      0.29663233	     25.02066926	     -3.75802859	     -4.00355561	    -62.48196487	     -0.76003333	     -5.40946853	      7.01776866	      6.75643026	      6.10550482	      0.89084277	     -3.52379205	      1.58986623	     -7.07602544	      0.05983530	     -2.16734717	     -3.60478042	      1.52214463
      1.31666667	     -3.36520703	      2.22522183	     -2.54874488	      0.23333724	      1.03483425	      0.29641791	     25.32343559	     -3.53772631	     -3.98367287	    -61.53935878	     -0.36408261	     -5.93872619	      6.84611583	      6.31332085	      5.93100452	      0.99543392	     -3.29803884	      1.67283941	     -7.17104271	      0.01305802	     -2.21093941	     -3.33851858	      1.41742602
      1.32083333	     -3.38123768	      2.03614230	     -2.56582186	      0.23828484	      1.03533109	      0.29620920	     25.64090753	     -3.32109063	     -3.96030657	    -60.54384769	      0.00179332	     -6.44555254	      6.65804375	      5.90966233	      5.76145115	      1.09662867	     -3.08483879	      1.75830741	     -7.27115804	     -0.03643104	     -2.21923612	     -3.07470483	      1.31682041
      1.32500000	     -3.38186703	      1.85779768	     -2.57950946	      0.24321101	      1.03580074	      0.29600086	     25.92424608	     -3.11733916	     -3.93264863	    -59.49716718	      0.34940419	     -6.90911065	      6.46375519	      5.49454258	      5.60449428	      1.19649743	     -2.87696649	      1.84637905	     -7.37001767	     -0.08595230	     -2.24798631	     -2.82923808	      1.22046834
      1.32916667	     -3.39304989	      1.67933356	     -2.58951145	      0.24813199	      1.03622277	      0.29581202	     26.19625074	     -2.90824375	     -3.90089142	    -58.38971108	      0.64631158	     -7.37300052	      6.21602911	      5.09297216	      5.44587137	      1.31050488	     -2.67243510	      1.92903979	     -7.48805306	     -0.14737578	     -2.26827584	     -2.58532284	      1.11104640
      1.33333333	     -3.37679605	      1.52007083	     -2.60108300	      0.25299408	      1.03662888	      0.29564180	     26.42816234	     -2.71558670	     -3.85335484	    -57.24185978	      0.95169493	     -7.82916333	      5.82669839	      4.67019508	      5.30845645	      1.42044020	     -2.47316410	      1.98225793	     -7.64489682	     -0.24366761	     -2.35592969	     -2.38029278	      0.98937221
      1.33750000	     -3.41137993	      1.35039072	     -2.57373479	      0.25790019	      1.03692954	      0.29540003	     26.68385528	     -2.53853281	     -3.86496744	    -56.04320968	      1.30353388	     -8.09984488	      3.41295191	      4.28520744	      5.16656253	      1.69778506	     -2.24755076	      2.01675237	     -8.02432229	     -0.82959546	     -2.32376596	     -2.13505182	      0.82237725
